<svg width="19" height="19" viewBox="0 0 19 19" fill="none" xmlns="http://www.w3.org/2000/svg">
<path d="M15.6973 0C13.9973 0 12.6973 1.3 12.6973 3V3.2L7.79725 8.1L8.49725 8.8L5.99725 11.3L7.39725 12.7L9.89725 10.2L10.5973 10.9L15.4973 6H15.6973C17.3973 6 18.6973 4.7 18.6973 3C18.6973 1.3 17.3973 0 15.6973 0ZM15.6973 4C15.0973 4 14.6973 3.6 14.6973 3C14.6973 2.4 15.0973 2 15.6973 2C16.2973 2 16.6973 2.4 16.6973 3C16.6973 3.6 16.2973 4 15.6973 4Z" fill="#ADFF2F"/>
<path d="M0 17.2827L1.9799 15.3028L3.39411 16.7171L1.41421 18.697L0 17.2827Z" fill="#ADFF2F"/>
<path d="M6 16.7171L7.41421 15.3029L9.39411 17.2828L7.9799 18.697L6 16.7171Z" fill="#ADFF2F"/>
<path d="M9.15527e-05 10.7171L1.41431 9.30286L3.3942 11.2828L1.97999 12.697L9.15527e-05 10.7171Z" fill="#ADFF2F"/>
</svg>